PathFileType	4	(X/Y/Z)	c:/Users/goper/Files/vsCode/490R/osim_files/A03/A03_Slow_03.trc
DataRate	CameraRate	NumFrames	NumMarkers	Units                	OrigDataRate	OrigDataStartFrame	OrigNumFrames
250.00	250.00	7	36	mm	250.0	1855	2967
                Frame#	Time	LPSIS			LASIS			LTH1			LTH2			LTH3			LTH4			LLFE			LMFE			LSH1			LSH2			LSH3			LSH4			LLMAL			LMMAL			LCAL			LMTP5			LTOE			LMTP1			RPSIS			RASIS			RTH1			RTH2			RTH3			RTH4			RLFE			RMFE			RSH1			RSH2			RSH3			RSH4			RLMAL			RMMAL			RCAL			RMTP1			RTOE			RMTP5		
		X1	Y1	Z1	X2	Y2	Z2	X3	Y3	Z3	X4	Y4	Z4	X5	Y5	Z5	X6	Y6	Z6	X7	Y7	Z7	X8	Y8	Z8	X9	Y9	Z9	X10	Y10	Z10	X11	Y11	Z11	X12	Y12	Z12	X13	Y13	Z13	X14	Y14	Z14	X15	Y15	Z15	X16	Y16	Z16	X17	Y17	Z17	X18	Y18	Z18	X19	Y19	Z19	X20	Y20	Z20	X21	Y21	Z21	X22	Y22	Z22	X23	Y23	Z23	X24	Y24	Z24	X25	Y25	Z25	X26	Y26	Z26	X27	Y27	Z27	X28	Y28	Z28	X29	Y29	Z29	X30	Y30	Z30	X31	Y31	Z31	X32	Y32	Z32	X33	Y33	Z33	X34	Y34	Z34	X35	Y35	Z35	X36	Y36	Z36

1855	7.41600	-1076.95422	1042.93799	314.67990	-1327.95032	956.90771	421.46567	-1379.86536	624.68536	458.13327	-1403.71033	588.54523	454.69296	-1432.20886	650.96436	434.20074	-1446.07959	608.99451	433.27472	-1400.83167	545.41833	446.21860	-1421.71973	544.55731	291.21783	-1377.13062	452.30618	443.86563	-1389.34546	405.96838	442.14905	-1438.78467	460.36130	438.74664	-1440.43311	412.98782	433.58398	-1465.46045	93.02815	406.58795	-1476.48364	102.74899	310.15387	-1398.43176	76.55391	353.17917	-1619.43127	48.57007	417.93765	-1645.77527	82.63103	349.33795	-1617.03735	60.03356	303.16049	-1073.19971	1055.44543	233.13188	-1295.84399	936.57489	121.65475	-1121.13745	597.31409	77.45979	-1113.80176	553.68048	81.74120	-1179.89636	579.60382	70.42058	-1165.46765	537.90228	75.76715	-1125.76050	515.27637	90.70858	-1184.29004	498.71390	200.25139	-1047.90027	483.62900	103.24722	-1021.64062	450.85272	94.17625	-1093.93066	443.27646	89.69554	-1059.32153	412.69888	83.41235	-861.88818	177.65921	155.11879	0.00000	0.00000	0.00000	-795.93195	157.95355	219.83301	-978.84583	47.79961	250.51611	-1004.93915	63.83937	201.47159	-957.75342	43.43337	137.07550
1856	7.42000	-1081.33191	1043.38416	314.61963	-1332.07446	957.64148	422.21106	-1383.75378	625.24011	459.47998	-1407.42969	589.06061	456.12057	-1435.93860	651.32599	435.48099	-1449.79504	609.37799	434.64401	-1404.61658	545.61182	447.78357	-1425.68835	545.06415	292.81812	-1380.25085	452.71747	445.14764	-1392.12769	406.27127	443.28732	-1441.95471	460.29733	440.13736	-1443.22229	412.89539	434.80713	-1465.63159	92.97145	406.65115	-1476.70605	102.79221	310.30399	-1398.73767	76.44592	352.99911	-1619.43494	48.19703	417.97852	-1646.24048	82.23718	349.57123	-1617.30347	59.78160	303.27002	-1077.70557	1055.89465	233.15143	-1300.71619	937.26202	122.27686	-1128.41516	597.49438	76.27535	-1121.80884	553.81708	80.30724	-1187.22083	580.00104	69.16717	-1172.90881	538.22528	74.36864	-1133.31616	515.45892	89.35946	-1191.91882	498.59464	198.80109	-1055.48999	484.55377	101.62338	-1029.02063	451.99243	92.52809	-1101.22559	443.73438	88.19834	-1066.39270	413.46698	81.83399	-867.07227	180.57564	153.44093	0.00000	0.00000	0.00000	-800.99139	163.06146	218.26703	-979.87146	47.97449	250.21788	-1006.37958	63.35855	201.14282	-958.60352	43.42921	136.90213
1857	7.42400	-1085.71692	1043.89185	314.62924	-1336.18030	958.38336	422.93680	-1387.37439	625.71478	460.84814	-1411.07751	589.47418	457.63727	-1439.66174	651.72491	436.87805	-1453.41272	609.72675	436.11414	-1408.39453	545.77753	449.38284	-1429.55762	545.52454	294.41898	-1383.30859	453.08893	446.48273	-1394.77661	406.52429	444.44495	-1445.09460	460.19687	441.51010	-1445.92297	412.81696	436.02466	-1465.64111	92.88123	406.80435	-1476.81604	102.82260	310.45972	-1397.87451	77.15749	354.20215	-1619.41052	47.94938	418.08490	-1646.25415	82.11709	349.72003	-1617.35376	59.73538	303.44693	-1082.26685	1056.31201	233.29466	-1305.76855	938.05957	122.93829	-1135.86450	597.64124	75.13584	-1128.83850	553.99066	79.14101	-1194.68506	580.39716	67.94797	-1180.59021	538.55890	73.05407	-1141.07202	515.58337	88.08485	-1199.58557	498.53607	197.29460	-1063.40063	485.45529	99.95285	-1036.60437	453.11102	90.80710	-1108.78101	444.18469	86.77459	-1073.69617	414.25439	80.29950	-872.02240	183.44702	151.93480	0.00000	0.00000	0.00000	-805.94806	168.32269	216.96349	-980.92273	48.37426	249.88058	-1007.64850	63.18487	200.82262	-959.31989	43.45546	136.63167
1858	7.42800	-1090.10059	1044.47107	314.73483	-1340.27283	959.13373	423.63882	-1390.86133	626.17914	462.31409	-1414.46924	589.88910	459.18097	-1443.28638	652.06232	438.37802	-1456.99487	610.01117	437.79352	-1412.09912	545.94836	451.04831	-1433.39209	545.97125	296.08121	-1386.27478	453.44794	447.78769	-1397.40308	406.75906	445.61542	-1448.09106	460.06473	442.90945	-1448.60339	412.70776	437.27167	-1465.64209	92.79056	406.96759	-1476.81860	102.91463	310.62308	-1397.88745	77.15681	354.27536	-1619.37524	47.81821	418.24469	-1646.27405	82.10079	349.98648	-1617.34814	59.81104	303.61520	-1086.78967	1056.72595	233.46170	-1310.75830	938.86993	123.51485	-1143.48706	597.76483	74.06892	-1136.60547	554.13080	77.92248	-1202.35413	580.83130	66.84904	-1188.41821	538.88409	71.83832	-1149.11853	515.71936	86.95718	-1207.80054	497.94235	195.80139	-1071.51453	486.32129	98.34295	-1044.49731	454.22211	89.11063	-1116.58240	444.63284	85.41956	-1081.26025	415.01965	78.84915	-877.16296	186.37408	150.34377	0.00000	0.00000	0.00000	-811.09662	173.75076	215.65836	-981.95081	48.85512	249.63477	-1009.02631	62.92486	200.47496	-960.18097	43.52095	136.33214
1859	7.43200	-1094.56409	1045.08435	314.98871	-1344.35754	959.89319	424.31287	-1394.18042	626.61713	463.71710	-1417.71704	590.25995	460.78073	-1446.86121	652.23779	439.97156	-1460.40002	610.25372	439.60446	-1415.63147	546.05511	452.61603	-1437.09302	546.36005	297.74936	-1389.15417	453.76099	449.08417	-1399.92200	406.97440	446.76874	-1451.04834	459.96509	444.29434	-1451.22107	412.57007	438.53470	-1465.60486	92.70144	407.17319	-1476.82202	102.99715	310.85474	-1397.87634	77.17242	354.35068	-1619.37720	47.68319	418.44800	-1645.96985	82.15669	350.16748	-1617.36084	59.95476	303.86920	-1091.33972	1057.11975	233.67630	-1315.65027	939.81006	124.12120	-1151.26636	597.88416	73.01740	-1144.50586	554.24884	76.79975	-1210.20312	581.23438	65.77245	-1196.50867	539.21143	70.73410	-1157.13818	515.93365	85.86679	-1216.06836	498.03113	194.78505	-1079.78772	487.22125	96.77019	-1052.53979	455.33914	87.42645	-1124.53833	445.10001	84.15331	-1089.30396	415.77637	77.80921	-882.43927	189.33987	148.69093	0.00000	0.00000	0.00000	-816.66162	179.26437	213.90410	-983.33862	49.75063	249.15117	-1009.93567	61.73006	200.01955	-960.78894	43.52638	136.14740
1860	7.43600	-1099.00708	1045.73584	315.25391	-1348.43933	960.66193	424.95483	-1397.32495	627.05560	465.04919	-1420.75940	590.62048	462.35449	-1450.04114	652.42688	441.62308	-1463.65979	610.47424	441.49289	-1419.08789	546.12817	454.17358	-1440.64734	546.64783	299.31348	-1391.94299	454.03134	450.37952	-1402.41650	407.15363	447.91150	-1453.88904	459.79398	445.68918	-1453.71619	412.45898	439.76309	-1465.55432	92.60255	407.38367	-1476.75317	103.07484	311.08026	-1397.92163	77.20345	354.44980	-1619.33081	47.47116	418.71048	-1646.25110	82.15268	350.67609	-1617.38293	60.04956	304.13461	-1095.84790	1057.46680	233.89388	-1320.44653	940.55469	124.51851	-1159.10266	598.01141	72.09959	-1153.27783	554.31238	75.68512	-1218.07996	581.61737	64.82565	-1204.60535	539.50793	69.72088	-1165.45593	516.08685	84.92402	-1224.18738	497.92615	193.94998	-1088.26233	488.12012	95.24035	-1060.79810	456.46838	85.80853	-1132.67859	445.55084	82.95869	-1097.16333	416.58551	76.46375	-887.84192	192.38022	146.99594	0.00000	0.00000	0.00000	-822.01862	184.89813	212.24953	-984.89050	50.81568	248.52293	-1011.73016	61.43949	199.30750	-961.78265	43.84530	135.72412
1861	7.44000	-1103.40588	1046.45105	315.64392	-1352.52393	961.44061	425.56052	-1400.32361	627.41681	466.32870	-1423.69397	590.93829	463.91766	-1453.33728	652.58228	443.33676	-1466.87610	610.59003	443.45407	-1422.25024	546.20184	455.70847	-1444.12598	547.01764	300.85428	-1394.56824	454.28055	451.59680	-1404.76331	407.34128	448.99454	-1456.56250	459.62433	447.01855	-1456.07642	412.32651	440.95343	-1465.61279	92.48623	407.63727	-1476.92017	103.16841	311.31409	-1398.02710	77.31239	354.58475	-1619.42090	47.10713	418.97372	-1646.24854	81.95253	351.05325	-1617.51099	60.04769	304.42117	-1100.33801	1057.76733	234.15921	-1325.78015	941.82068	125.46660	-1167.23706	598.06482	71.27230	-1160.88379	554.41357	74.88396	-1226.26343	581.97919	63.98795	-1212.95447	539.83142	68.80890	-1174.60608	515.62427	84.75953	-1232.34790	498.13226	193.50105	-1096.90186	488.99670	93.80319	-1069.11951	457.61670	84.31139	-1140.95251	445.96289	81.86972	-1104.00818	417.19717	75.23160	-893.34180	195.61070	145.32259	0.00000	0.00000	0.00000	-827.64160	190.70227	210.43561	-986.31573	51.90609	247.95999	-1013.28949	61.05415	198.63901	-962.91266	44.15590	135.27792
